<?xml version="1.0" encoding="UTF-8"?>
<svg width="1536" height="1536" version="1.1" viewBox="0 0 1536 1536" xmlns="http://www.w3.org/2000/svg" xmlns:xlink="http://www.w3.org/1999/xlink">
    <!--Generated by IJSVG (https://github.com/curthard89/IJSVG)-->
    <g transform="scale(24)">
        <path fill="#FFECB3" d="M45.5,27c0,-7.4 -6,-13.5 -13.5,-13.5c-7.4,0 -13.5,6 -13.5,13.5c0,3.7 1.5,7.1 3.9,9.5l1.5,5.9c0,2.3 1.9,4.6 4.2,4.6h7.6c2.3,0 4.2,-2.3 4.2,-4.6l1.5,-5.7c2.6,-2.4 4.1,-6 4.1,-9.7Z"></path>
        <path fill="#37474F" d="M35.9,48h-7.6c-2.8,0 -5.2,-2.5 -5.2,-5.5l-1.5,-5.5c-2.6,-2.7 -4,-6.3 -4,-10c0,-8 6.5,-14.5 14.5,-14.5c8,0 14.5,6.5 14.5,14.5c0,3.8 -1.5,7.5 -4,10.2l-1.4,5.3c-0.1,3 -2.6,5.5 -5.3,5.5Zm-3.8,-33.5c-6.9,0 -12.5,5.6 -12.5,12.5c0,3.3 1.3,6.5 3.6,8.8c0.1,0.1 0.2,0.3 0.3,0.5l1.5,5.9c0,0.1 0,0.2 0,0.2c0,1.9 1.5,3.6 3.2,3.6h7.6c1.7,0 3.2,-1.7 3.2,-3.6c0,-0.1 0,-0.2 0,-0.2l1.5,-5.7c0,-0.2 0.1,-0.3 0.3,-0.5c2.3,-2.3 3.6,-5.6 3.6,-9c0.1,-6.9 -5.5,-12.5 -12.3,-12.5Z"></path>
        <path fill="#FFECB3" d="M26,50h12"></path>
        <path fill="#37474F" d="M38,51h-12c-0.6,0 -1,-0.4 -1,-1c0,-0.6 0.4,-1 1,-1h12c0.6,0 1,0.4 1,1c0,0.6 -0.4,1 -1,1Z"></path>
        <path fill="#FFECB3" d="M26,54h12"></path>
        <path fill="#37474F" d="M38,55h-12c-0.6,0 -1,-0.4 -1,-1c0,-0.6 0.4,-1 1,-1h12c0.6,0 1,0.4 1,1c0,0.6 -0.4,1 -1,1Z"></path>
        <path fill="#FFECB3" d="M7,30h7"></path>
        <path fill="#37474F" d="M14,31h-7c-0.6,0 -1,-0.4 -1,-1c0,-0.6 0.4,-1 1,-1h7c0.6,0 1,0.4 1,1c0,0.6 -0.4,1 -1,1Z"></path>
        <path fill="#FFECB3" d="M14.2,9.1l4.7,4.7"></path>
        <path fill="#37474F" d="M18.9,14.8c-0.3,0 -0.5,-0.1 -0.7,-0.3l-4.7,-4.7c-0.4,-0.4 -0.4,-1 0,-1.4c0.4,-0.4 1,-0.4 1.4,0l4.7,4.7c0.4,0.4 0.4,1 0,1.4c-0.2,0.2 -0.4,0.3 -0.7,0.3Z"></path>
        <path fill="#FFECB3" d="M57,30h-7"></path>
        <path fill="#37474F" d="M57,31h-7c-0.6,0 -1,-0.4 -1,-1c0,-0.6 0.4,-1 1,-1h7c0.6,0 1,0.4 1,1c0,0.6 -0.4,1 -1,1Z"></path>
        <path fill="#FFECB3" d="M49.9,9.1l-4.7,4.7"></path>
        <path fill="#37474F" d="M45.2,14.8c-0.3,0 -0.5,-0.1 -0.7,-0.3c-0.4,-0.4 -0.4,-1 0,-1.4l4.7,-4.7c0.4,-0.4 1,-0.4 1.4,0c0.4,0.4 0.4,1 0,1.4l-4.7,4.7c-0.2,0.2 -0.4,0.3 -0.7,0.3Z"></path>
        <path fill="#FFECB3" d="M32,2v7"></path>
        <path fill="#37474F" d="M32,10c-0.6,0 -1,-0.4 -1,-1v-7c0,-0.6 0.4,-1 1,-1c0.6,0 1,0.4 1,1v7c0,0.6 -0.4,1 -1,1Z"></path>
        <path fill="#FFECB3" d="M28,27h8v8h-8Z"></path>
        <path fill="#37474F" d="M36,36h-8c-0.6,0 -1,-0.4 -1,-1v-8c0,-0.6 0.4,-1 1,-1h8c0.6,0 1,0.4 1,1v8c0,0.6 -0.4,1 -1,1Zm-7,-2h6v-6h-6v6Z"></path>
        <path fill="#FFECB3" d="M30,23v4"></path>
        <path fill="#37474F" d="M30,28c-0.6,0 -1,-0.4 -1,-1v-4c0,-0.6 0.4,-1 1,-1c0.6,0 1,0.4 1,1v4c0,0.6 -0.4,1 -1,1Z"></path>
        <path fill="#FFECB3" d="M34,23v4"></path>
        <path fill="#37474F" d="M34,28c-0.6,0 -1,-0.4 -1,-1v-4c0,-0.6 0.4,-1 1,-1c0.6,0 1,0.4 1,1v4c0,0.6 -0.4,1 -1,1Z"></path>
        <path fill="#FFECB3" d="M30,36v3"></path>
        <path fill="#37474F" d="M30,40c-0.6,0 -1,-0.4 -1,-1v-3c0,-0.6 0.4,-1 1,-1c0.6,0 1,0.4 1,1v3c0,0.6 -0.4,1 -1,1Z"></path>
        <path fill="#FFECB3" d="M34,36v3"></path>
        <path fill="#37474F" d="M34,40c-0.6,0 -1,-0.4 -1,-1v-3c0,-0.6 0.4,-1 1,-1c0.6,0 1,0.4 1,1v3c0,0.6 -0.4,1 -1,1Z"></path>
        <path fill="#FFECB3" d="M40,30h-3"></path>
        <path fill="#37474F" d="M40,31h-3c-0.6,0 -1,-0.4 -1,-1c0,-0.6 0.4,-1 1,-1h3c0.6,0 1,0.4 1,1c0,0.6 -0.4,1 -1,1Z"></path>
        <path fill="#FFECB3" d="M40,33h-3"></path>
        <path fill="#37474F" d="M40,34h-3c-0.6,0 -1,-0.4 -1,-1c0,-0.6 0.4,-1 1,-1h3c0.6,0 1,0.4 1,1c0,0.6 -0.4,1 -1,1Z"></path>
        <path fill="#FFECB3" d="M27,30h-3"></path>
        <path fill="#37474F" d="M27,31h-3c-0.6,0 -1,-0.4 -1,-1c0,-0.6 0.4,-1 1,-1h3c0.6,0 1,0.4 1,1c0,0.6 -0.4,1 -1,1Z"></path>
        <path fill="#FFECB3" d="M27,33h-3"></path>
        <path fill="#37474F" d="M27,34h-3c-0.6,0 -1,-0.4 -1,-1c0,-0.6 0.4,-1 1,-1h3c0.6,0 1,0.4 1,1c0,0.6 -0.4,1 -1,1Z"></path>
        <path fill="#FFAB00" d="M26,58c-0.1,0.2 -0.1,0.8 -0.1,1.1c0,1.4 1.2,3 2.6,3h6.3c1.4,0 2.6,-1.5 2.6,-3c0,-0.2 0,-0.7 -0.1,-0.9"></path>
        <path fill="#37474F" d="M34.7,63h-6.3c-2.1,0 -3.6,-2.1 -3.6,-4c0,-0.1 0,-0.9 0.1,-1.3c0.1,-0.5 0.7,-0.8 1.2,-0.7c0.5,0.1 0.8,0.7 0.7,1.2c0,0.1 -0.1,0.6 -0.1,0.8c0,1 0.8,2 1.6,2h6.3c0.8,0 1.6,-1 1.6,-2c0,-0.2 0,-0.5 -0.1,-0.6c-0.2,-0.5 0.2,-1.1 0.7,-1.2c0.5,-0.2 1.1,0.2 1.2,0.7c0.1,0.4 0.1,0.9 0.1,1.2c0.2,1.8 -1.3,3.9 -3.4,3.9Z"></path>
    </g>
</svg>