<?xml version="1.0" encoding="UTF-8"?>
<svg width="576" height="576" version="1.1" viewBox="0 0 576 576" xmlns="http://www.w3.org/2000/svg" xmlns:xlink="http://www.w3.org/1999/xlink">
    <!--Generated by IJSVG (https://github.com/curthard89/IJSVG)-->
    <g transform="scale(24)">
        <path fill="#000" d="M12,4.4c-3.1,0 -5.6,2.5 -5.6,5.6c0,1.5 0.6,2.8 1.6,3.9l0.5,1.9c0,1.1 1,2 2.1,2h2.9c1.1,0 2.1,-0.9 2.1,-2.1l0.5,-1.9c1,-1.1 1.6,-2.4 1.6,-3.9c-0.1,-2.9 -2.6,-5.5 -5.7,-5.5Zm3.3,9c-0.1,0.1 -0.1,0.1 -0.1,0.2l-0.6,2.1c0,0 0,0.1 0,0.1c0,0.6 -0.5,1.1 -1.1,1.1h-2.9c-0.6,0 -1.1,-0.5 -1.1,-1.1c0,0 0,-0.1 0,-0.1l-0.6,-2.1c0,-0.1 -0.1,-0.2 -0.1,-0.2c-0.9,-0.9 -1.4,-2 -1.4,-3.3c0,-2.6 2.1,-4.6 4.6,-4.6c2.6,0 4.6,2.1 4.6,4.6c0,1.2 -0.4,2.4 -1.3,3.3Z"></path>
        <path fill="#000" d="M14.3,18.5h-4.6c-0.3,0 -0.5,0.2 -0.5,0.5c0,0.3 0.2,0.5 0.5,0.5h4.5c0.3,0 0.5,-0.2 0.5,-0.5c0,-0.3 -0.2,-0.5 -0.4,-0.5Z"></path>
        <path fill="#000" d="M14.3,20h-4.6c-0.3,0 -0.5,0.2 -0.5,0.5c0,0.3 0.3,0.5 0.5,0.5h4.5c0.3,0 0.5,-0.2 0.5,-0.5c0,-0.3 -0.2,-0.5 -0.4,-0.5Z"></path>
        <path fill="#000" d="M5,10.5h-2.5c-0.3,0 -0.5,0.2 -0.5,0.5c0,0.3 0.2,0.5 0.5,0.5h2.5c0.3,0 0.5,-0.2 0.5,-0.5c0,-0.3 -0.2,-0.5 -0.5,-0.5Z"></path>
        <path fill="#000" d="M6.6,5.4c0.1,0.1 0.2,0.1 0.4,0.1c0.2,0 0.3,0 0.4,-0.1c0.2,-0.2 0.2,-0.5 0,-0.7l-1.9,-1.8c-0.2,-0.2 -0.5,-0.2 -0.7,0c-0.2,0.2 -0.2,0.5 0,0.7l1.8,1.8Z"></path>
        <path fill="#000" d="M21.5,10.5h-2.5c-0.3,0 -0.5,0.2 -0.5,0.5c0,0.3 0.2,0.5 0.5,0.5h2.5c0.3,0 0.5,-0.2 0.5,-0.5c0,-0.3 -0.2,-0.5 -0.5,-0.5Z"></path>
        <path fill="#000" d="M17,5.5c0.1,0 0.3,0 0.4,-0.1l1.8,-1.8c0.2,-0.2 0.2,-0.5 0,-0.7c-0.2,-0.2 -0.5,-0.2 -0.7,0l-1.8,1.8c-0.2,0.2 -0.2,0.5 0,0.7c0.1,0.1 0.2,0.1 0.3,0.1Z"></path>
        <path fill="#000" d="M12,3.6c0.3,0 0.5,-0.2 0.5,-0.5v-2.3c0,-0.3 -0.2,-0.5 -0.5,-0.5c-0.3,0 -0.5,0.2 -0.5,0.5v2.3c0,0.3 0.2,0.5 0.5,0.5Z"></path>
        <path fill="#000" d="M14.2,10.6v-0.6c0,-0.3 -0.2,-0.5 -0.5,-0.5h-0.5v-0.9c0,-0.3 -0.2,-0.5 -0.5,-0.5c-0.3,0 -0.5,0.2 -0.5,0.5v0.9h-0.3v-0.9c0,-0.3 -0.2,-0.5 -0.5,-0.5c-0.3,0 -0.5,0.2 -0.5,0.5v0.9h-0.5c-0.3,0 -0.5,0.2 -0.5,0.5v0.5h-1c-0.3,0 -0.5,0.2 -0.5,0.5c0,0.3 0.2,0.5 0.5,0.5h0.9v0.3h-0.9c-0.3,0 -0.5,0.2 -0.5,0.5c0,0.3 0.2,0.5 0.5,0.5h0.9v0.5c0,0.3 0.2,0.5 0.5,0.5h0.5v0.9c0,0.3 0.2,0.5 0.5,0.5c0.3,0 0.5,-0.2 0.5,-0.5v-0.9h0.3v0.9c0,0.3 0.2,0.5 0.5,0.5c0.3,0 0.5,-0.2 0.5,-0.5v-0.9h0.5c0.3,0 0.5,-0.2 0.5,-0.5v-0.5h0.9c0.3,0 0.5,-0.2 0.5,-0.5c0,-0.3 -0.2,-0.5 -0.5,-0.5h-0.9v-0.3h0.9c0.3,0 0.5,-0.2 0.5,-0.5c0,-0.3 -0.2,-0.5 -0.5,-0.5h-0.8Zm-1,2.3h-2.3v-2.3h2.3v2.3Z"></path>
        <path fill="#000" d="M13.8,21.4c-0.3,0.1 -0.4,0.4 -0.3,0.6c0,0 0,0.1 0,0.1c0,0.3 -0.2,0.5 -0.5,0.5h-2c-0.3,0 -0.5,-0.2 -0.5,-0.5c0,0 0,-0.1 0,-0.1c0.1,-0.3 -0.1,-0.5 -0.3,-0.6c-0.3,-0.1 -0.5,0.1 -0.6,0.3c0,0.1 -0.1,0.3 -0.1,0.4c0,0.8 0.7,1.5 1.5,1.5h2c0.8,0 1.5,-0.7 1.5,-1.5c0,-0.1 0,-0.3 -0.1,-0.4c0,-0.2 -0.3,-0.3 -0.6,-0.3Z"></path>
    </g>
</svg>