<svg xmlns="http://www.w3.org/2000/svg" xmlns:xlink="http://www.w3.org/1999/xlink" width="24" height="24" viewBox="0 0 24 24">
  <defs>
    <path id="icon_settings-a" d="M10.9062422,3.00000025 C10.7146694,3.00010171 10.5513267,3.13885032 10.520255,3.32787047 L10.1396181,5.65811838 C9.68191561,5.79125118 9.24547014,5.9708895 8.83414032,6.19463309 L6.91108332,4.8212468 C6.75561378,4.71023902 6.54271184,4.7276832 6.40738884,4.86251715 L4.88484132,6.38340691 C4.75053471,6.51779612 4.73216182,6.7292274 4.84127441,6.88476558 L6.19414039,8.81988799 C5.96692668,9.23358432 5.7832938,9.67245287 5.64687948,10.134426 L3.32637007,10.5203804 C3.1379414,10.5521164 2.99997767,10.7152681 3.00000065,10.9063348 L3.00000065,13.0585087 C2.99965613,13.2483607 3.13563903,13.4110753 3.32254842,13.4444631 L5.64458647,13.8556386 C5.78026129,14.3168107 5.96272708,14.7559818 6.19031898,15.1701762 L4.8206375,17.086192 C4.70962052,17.2416483 4.72706618,17.4545319 4.86191136,17.5898434 L6.38369491,19.1122618 C6.51778797,19.2463804 6.72875543,19.2650599 6.88433148,19.1565891 L8.82343959,17.7992522 C9.23598255,18.0243179 9.67349598,18.2052759 10.1327392,18.3395887 L10.520255,20.6728934 C10.5516606,20.8616099 10.7149145,20.99996 10.9062422,20.9999996 L13.0585987,20.9999996 C13.2487088,21.0002786 13.4115239,20.8639123 13.4445859,20.6767149 L13.8596178,18.3342388 C14.3169661,18.1978681 14.7524227,18.0142289 15.1628023,17.7877886 L17.114904,19.1573537 C17.2704554,19.2664571 17.4819046,19.2480858 17.6163053,19.1137906 L19.1380887,17.5906076 C19.2735403,17.4548775 19.2906905,17.2410047 19.1785984,17.0854278 L17.7867512,15.1533627 C18.0092947,14.7449834 18.1885789,14.3121683 18.3217832,13.8579313 L20.6766874,13.4452273 C20.8639007,13.4121681 21.0002786,13.2493668 20.9999996,13.0592729 L20.9999996,10.907099 C20.9998981,10.7155425 20.8611376,10.5522137 20.6721014,10.5211446 L18.3210189,10.1367186 C18.1869216,9.68301926 18.0071415,9.25097858 17.7844583,8.84281607 L19.1571969,6.88705863 C19.2663095,6.73152046 19.2479367,6.52008918 19.1136301,6.38569995 L17.5910824,4.86404571 C17.4553408,4.72860559 17.2414499,4.71145693 17.0858597,4.82353956 L15.1589809,6.20915439 C14.7484365,5.98362148 14.3126927,5.80095338 13.8542674,5.66576102 L13.4445859,3.32404915 C13.4118534,3.1365479 13.2489512,2.99978613 13.0585987,3.00000025 L10.9062422,3.00000025 Z M11.2394907,3.78260892 L12.7299362,3.78260892 L13.1197452,6.00738806 C13.1462454,6.15983512 13.260088,6.28235525 13.4101912,6.31997295 C13.9825263,6.46258656 14.5200602,6.68864972 15.0107004,6.98564893 C15.1447916,7.06688832 15.3144283,7.06027181 15.4417834,6.96883497 L17.2731206,5.6527685 L18.3271335,6.70669159 L17.0231847,8.56462295 C16.9342079,8.69124966 16.9282158,8.85841225 17.0078979,8.99108363 C17.3019845,9.48057562 17.525034,10.01467 17.6675157,10.5838144 C17.7054374,10.7353157 17.8298132,10.8497677 17.9839489,10.875 L20.2173245,11.2403193 L20.2173245,12.7306387 L17.9793628,13.1234714 C17.8267797,13.1504786 17.7044992,13.264957 17.6675157,13.4154212 C17.5266823,13.9838413 17.3034982,14.5179208 17.0094264,15.0073878 C16.9287428,15.1414343 16.9356563,15.3106504 17.0270061,15.4376695 L18.3492989,17.2726728 L17.2952864,18.3273605 L15.4402548,17.0258149 C15.3129654,16.9366622 15.1449818,16.9312632 15.0122293,17.0120582 C14.5240295,17.3090547 13.9859423,17.5361846 13.4155416,17.6807911 C13.2661769,17.7184407 13.152789,17.8401951 13.1258598,17.9918475 L12.7307009,20.2173909 L11.2379618,20.2173909 L10.8695543,18.0017831 C10.8439257,17.8477447 10.7291677,17.7236844 10.5775797,17.686141 C10.0049025,17.5450003 9.4649522,17.3192775 8.97095585,17.0227581 C8.83845886,16.9434153 8.67168809,16.9494029 8.54522324,17.0380432 L6.7047138,18.3273605 L5.6499368,17.2711444 L6.95082834,15.452955 C7.04170048,15.3256255 7.04801255,15.1564178 6.96687944,15.0226729 C6.66710705,14.5273779 6.44039229,13.987518 6.29732515,13.412364 C6.25993259,13.2627149 6.1381151,13.1489883 5.98624251,13.121943 L3.78267576,12.7306387 L3.78267576,11.2380263 L5.98471383,10.8719431 C6.13855619,10.8464327 6.26257263,10.732035 6.30038267,10.5807575 C6.444679,10.0036212 6.67128379,9.46385049 6.96993657,8.96968398 C7.05040436,8.83712707 7.04500838,8.66956507 6.95617871,8.54245909 L5.67057375,6.70516315 L6.72611527,5.65047569 L8.55057361,6.95431406 C8.67741812,7.04475225 8.84582544,7.05135594 8.97936334,6.97112801 C9.47074947,6.67602781 10.0119533,6.45211877 10.5852233,6.31156617 C10.7375575,6.27406518 10.8527759,6.14923052 10.8779618,5.99439554 L11.2394907,3.78260892 Z M12.0000001,8.86956525 C10.2755974,8.86956525 8.86929965,10.2757436 8.86929965,11.9999999 C8.86929965,13.7242562 10.2755974,15.1304346 12.0000001,15.1304346 C13.7244028,15.1304346 15.1307005,13.7242562 15.1307005,11.9999999 C15.1307005,10.2757436 13.7244028,8.86956525 12.0000001,8.86956525 Z M12.0000001,9.65217391 C13.3014139,9.65217391 14.3480254,10.6986966 14.3480254,11.9999999 C14.3480254,13.3013032 13.3014139,14.3478259 12.0000001,14.3478259 C10.6985863,14.3478259 9.65197476,13.3013032 9.65197476,11.9999999 C9.65197476,10.6986966 10.6985863,9.65217391 12.0000001,9.65217391 Z"/>
  </defs>
  <g fill="none" fill-rule="evenodd">
    <use fill="#FFF" xlink:href="#icon_settings-a"/>
    <path stroke="#FFF" d="M10.9987648,3.50000025 L10.5822158,6.05010135 L10.2792665,6.13822081 C9.85678062,6.26111007 9.45354333,6.42689212 9.07305753,6.63385805 L8.79818726,6.78337423 L8.54355287,6.60152242 L6.69534817,5.28159327 L5.3029399,6.67248524 L6.7820231,8.78814717 L6.63239109,9.06058765 C6.42099431,9.44548551 6.25180613,9.85136618 6.12641025,10.2760248 L6.03774778,10.5762842 L5.72891411,10.6276504 L3.50000062,10.9983693 L3.49999986,12.9681069 L6.03682254,13.4173155 L6.1242591,13.714521 C6.24965154,14.1407424 6.4181487,14.5465315 6.62852297,14.9293915 L6.7799988,15.2050624 L6.59707536,15.4609498 L5.28105192,17.3019045 L6.67285981,18.694293 L8.79071983,17.2118333 L9.06290034,17.3603233 C9.44504517,17.5688052 9.84944116,17.7357884 10.2730925,17.8596919 L10.5745282,17.9478515 L10.625983,18.2576707 L10.9983894,20.4999996 L12.9681084,20.5000001 L13.4211066,17.9432386 L13.7167454,17.8550859 C14.1365089,17.7299221 14.539136,17.5608511 14.921244,17.3500106 L15.1944905,17.1992379 L15.4499687,17.3784776 L17.3273262,18.6956034 L18.7189139,17.302736 L17.1971699,15.1903571 L17.347709,14.9141097 C17.5539951,14.5355636 17.7192885,14.1356459 17.8419877,13.717232 L17.9294222,13.4190734 L18.2354721,13.3654372 L20.4999996,12.9685724 L20.4999996,10.999644 L17.9305087,10.579506 L17.8415243,10.2784401 C17.7180286,9.86060962 17.5522438,9.46116961 17.3455327,9.08228284 L17.1968237,8.80970963 L17.3752073,8.55556433 L18.6954227,6.67463729 L17.3031259,5.28315734 L15.1947524,6.79928471 L14.91824,6.64738242 C14.5357525,6.43726257 14.133021,6.26925627 13.7128363,6.1453413 L13.4152205,6.05757263 L13.3617479,5.75192709 L12.9677743,3.50000025 L10.9987648,3.50000025 Z M5.25126044,6.59856359 C5.25119426,6.5984686 5.25112791,6.5983737 5.25106139,6.59827887 L5.25126044,6.59856359 Z M13.0590072,20.5000001 L13.0593325,20.5000001 C13.0592241,20.5 13.0591157,20.5 13.0590074,20.5000001 Z M12.9522745,20.589368 C12.9522675,20.5894071 12.9522606,20.5894461 12.9522537,20.5894852 L12.9522745,20.589368 Z M13.6002141,5.85244788 C14.1670546,6.0004933 14.7070031,6.22557283 15.2080245,6.5211038 L17.3262804,4.99884707 L18.9776914,6.65011737 L18.7363977,6.99392474 L17.472663,8.79455672 C17.7644051,9.2926984 17.9868461,9.8288003 18.1347731,10.3930258 L20.7173245,10.8154608 L20.7173245,13.1505173 L20.3037686,13.2231094 L18.1355866,13.6036931 C17.9893776,14.1669712 17.7670809,14.7036567 17.474486,15.2034037 L19.0035431,17.3253428 L17.3519976,18.9779462 L17.0081077,18.7366628 L15.2111198,17.4758423 C14.7133804,17.770906 14.1730858,17.997511 13.6059663,18.1479331 L13.1497432,20.7173909 L10.8142359,20.7173909 L10.7447338,20.299404 L10.3879917,18.1539522 C9.82104917,18.0073188 9.27884614,17.7827522 8.77478219,17.4877096 L6.64765251,18.9778106 L4.99680761,17.3247134 L5.24330131,16.9802018 L6.5025009,15.2202838 C6.20440534,14.7150643 5.97824019,14.1722112 5.82965321,13.6019585 L3.28267576,13.1496721 L3.28267576,10.8142876 L3.70067746,10.7447958 L5.83301696,10.3902999 C5.98270652,9.8185208 6.20865511,9.27605219 6.50606671,8.77131619 L5.02035221,6.64803782 L6.67227998,4.99744665 L7.01683089,5.24367792 L8.78333173,6.50609766 C9.28384212,6.21331333 9.8269493,5.98989583 10.3959792,5.84357262 L10.8145831,3.28260892 L13.1499468,3.28260892 L13.2224337,3.69631723 L13.6002142,5.85244796 Z M12.0000001,9.36956525 C10.5517303,9.36956525 9.36929965,10.5518955 9.36929965,11.9999999 C9.36929965,13.4481044 10.5517303,14.6304346 12.0000001,14.6304346 C13.4482699,14.6304346 14.6307005,13.4481044 14.6307005,11.9999999 C14.6307005,10.5518955 13.4482699,9.36956525 12.0000001,9.36956525 Z M12.0000001,9.15217391 C13.5775467,9.15217391 14.8480254,10.4225447 14.8480254,11.9999999 C14.8480254,13.5774551 13.5775467,14.8478259 12.0000001,14.8478259 C10.4224534,14.8478259 9.15197476,13.5774551 9.15197476,11.9999999 C9.15197476,10.4225447 10.4224534,9.15217391 12.0000001,9.15217391 Z"/>
  </g>
</svg>
