<svg xmlns="http://www.w3.org/2000/svg" xmlns:xlink="http://www.w3.org/1999/xlink" width="54" height="46" viewBox="0 0 54 46">
  <defs>
    <polygon id="fiktives_firmenlogo-a" points="0 .06 52.007 .06 52.007 3.714 0 3.714"/>
    <path id="fiktives_firmenlogo-c" d="M19.8371669,0.0557020748 L19.8371669,4.13872969 L19.8371669,11.3343892 L18.8638065,11.3343892 L18.8638065,3.52024006 L13.4153995,0.0557020748 L13.4153995,11.3343892 L12.4421937,11.3343892 L12.4421937,3.52024006 L6.99347754,0.0557020748 L6.99347754,8.11861017 C2.61938478,10.0937402 -0.137903041,12.304916 0.0386499555,14.0419033 C0.0630767273,14.288303 0.146251431,14.516485 0.283226874,14.7271043 C0.815050261,13.1534224 3.31817598,11.3117152 6.99347754,9.63396873 L6.99347754,15.5718099 C10.1462317,15.506147 13.9677847,15.01243 18.0543218,14.066019 C23.2726842,12.8569563 27.931859,11.1398907 31.2402952,9.34326943 L31.2402952,7.30627732 L27.3378865,4.82524138 C31.418858,4.70230362 34.3635208,5.32472516 35.216448,6.63549328 C35.3051883,6.37257949 35.3384273,6.11713632 35.3136913,5.87139188 C35.1086919,3.86048144 31.0254015,3.02167373 25.2320823,3.4861635 L19.8371669,0.0557020748 Z"/>
    <path id="fiktives_firmenlogo-e" d="M20.1242588,9.48403185 C23.9651368,9.01692081 27.4046736,8.06094214 30.0044242,6.82527352 L27.6866637,5.35185535 L25.1025277,3.70844755 L20.1242588,0.543521186 L20.1242588,9.48403185 Z M13.7028006,9.77591072 C15.0526117,9.82060345 16.4673546,9.79609454 17.9247671,9.69491335 C18.1430621,9.67918571 18.3593472,9.66162317 18.575787,9.64353638 L18.575787,3.64173612 L13.7028006,0.543521186 L13.7028006,9.77591072 Z M7.28103321,4.36494565 L7.28103321,8.18623904 L7.28103321,8.92950132 C8.73102494,9.29700395 10.3742664,9.5571654 12.1540196,9.69216102 L12.1540196,3.64173612 L7.28103321,0.543521186 L7.28103321,4.36494565 Z"/>
    <path id="fiktives_firmenlogo-g" d="M18.0543218,14.9575143 C8.54674195,17.1597778 0.473693854,16.9129848 -1.08096195,14.5217275 C-1.17604084,14.8023349 -1.2115988,15.0753406 -1.18516223,15.3377301 C-0.998869449,17.1719667 2.20876765,18.0925582 6.99347754,18.0136578 L6.99347754,18.9611173 L13.4153995,18.9611173 L19.8371669,18.9611173 L24.8189916,17.4360601 L31.2402952,15.4703666 L31.2402952,11.86677 C34.6212387,10.0567802 36.6410854,8.15832247 36.4837028,6.61255713 C36.4568024,6.35003653 36.3685259,6.10652016 36.2222745,5.88148378 C35.2139744,8.86619755 27.5619016,12.755513 18.0543218,14.9575143"/>
  </defs>
  <g fill="none" fill-rule="evenodd" transform="translate(1.431 8.224)">
    <g transform="translate(0 24.586)">
      <mask id="fiktives_firmenlogo-b" fill="#fff">
        <use xlink:href="#fiktives_firmenlogo-a"/>
      </mask>
      <path fill="#484848" d="M44.9108635,0.0604695171 L47.8729136,2.39143752 L47.8729136,3.71387031 L49.0449589,3.71387031 L49.0449589,2.39143752 L52.0068166,0.0604695171 L50.2776073,0.0604695171 L48.4583591,1.59948508 L46.6393032,0.0604695171 L44.9108635,0.0604695171 Z M37.6123227,0.0604695171 L37.6123227,3.71387031 L38.7824441,3.71387031 L38.7824441,1.15141104 L42.4905861,3.71387031 L43.6655172,3.71387031 L43.6655172,0.0604695171 L42.4905861,0.0604695171 L42.4905861,2.62604155 L38.7824441,0.0604695171 L37.6123227,0.0604695171 Z M32.4764479,0.0604695171 L29.7525777,3.71387031 L31.0113913,3.71387031 C31.6953409,2.79806266 32.3779438,1.88225502 33.0618934,0.96693887 C33.7423799,1.88274651 34.42556,2.7965882 35.1041227,3.71387031 L36.3656297,3.71387031 L33.6421443,0.0604695171 L32.4764479,0.0604695171 Z M23.2767003,0.0604695171 L23.2767003,0.873719809 L24.4468217,0.873719809 L25.1190355,0.873719809 L27.3998295,0.873719809 C27.5681715,0.872409172 27.7072701,0.914185728 27.8136623,0.999704796 C27.9214012,1.07899834 27.976425,1.18630675 27.976425,1.31884492 C27.976425,1.44679586 27.9214012,1.55344895 27.8136623,1.63962334 C27.7072701,1.71744241 27.5681715,1.75889131 27.3998295,1.76413386 L25.1190355,1.76413386 L24.4468217,1.76413386 L23.2767003,1.76413386 L23.2767003,3.71387031 L24.4468217,3.71387031 L24.4468217,2.5721416 L27.5104543,2.5721416 C27.8053895,2.5721416 28.0770454,2.51807782 28.3231134,2.40667367 C28.5745683,2.29494187 28.7702298,2.14274414 28.9124067,1.95073581 C29.0588161,1.75725301 29.1317323,1.54591279 29.1317323,1.31884492 C29.1317323,1.08964726 29.0599705,0.879453846 28.9152925,0.687609348 C28.7717689,0.493798893 28.5745683,0.340454358 28.3231134,0.22823106 C28.0770454,0.116335422 27.8053895,0.0604695171 27.5104543,0.0604695171 L23.2767003,0.0604695171 Z M21.8412719,0.0604695171 L21.8412719,3.71387031 L20.6699962,3.71387031 L20.6699962,1.39895761 L18.9234717,3.38588338 L17.9174597,3.38588338 L16.1697809,1.39895761 L16.1697809,3.71387031 L14.9992747,3.71387031 L14.9992747,0.0604695171 L16.2138384,0.0604695171 L18.4188304,2.620799 L20.622668,0.0604695171 L21.8412719,0.0604695171 Z M9.17464054,0.873719809 L11.8396391,0.873719809 C11.9966301,0.868313431 12.1266863,0.909598499 12.2307698,0.996919692 C12.3369696,1.07555792 12.3916086,1.17762378 12.3916086,1.30082366 L12.3916086,2.47400765 C12.3916086,2.58934371 12.3369696,2.69009894 12.2307698,2.77529035 C12.1266863,2.85343708 11.9966301,2.89521364 11.8396391,2.89980087 L9.17464054,2.89980087 C9.02053544,2.89783491 8.88913246,2.85802431 8.78312508,2.77791162 C8.67673292,2.69255638 8.62305586,2.59130967 8.62305586,2.47400765 L8.62305586,1.30082366 C8.62305586,1.17762378 8.67673292,1.07686855 8.78312508,0.999704796 C8.88913246,0.914185728 9.02053544,0.872409172 9.17464054,0.873719809 Z M8.83045324,0.0604695171 C8.44759537,0.0604695171 8.12245477,0.164992822 7.8534923,0.372237306 C7.58626136,0.580956257 7.45254969,0.831779424 7.45254969,1.12683659 L7.45254969,2.64668408 C7.45254969,2.94206891 7.58626136,3.19387505 7.8534923,3.40128337 C8.12245477,3.61000232 8.44759537,3.71387031 8.83045324,3.71387031 L12.1838264,3.71387031 C12.5682234,3.71387031 12.8927869,3.61000232 13.1600178,3.40128337 C13.4301346,3.19387505 13.5632691,2.94206891 13.5609604,2.64668408 L13.5609604,1.12683659 C13.5632691,0.831779424 13.4301346,0.580956257 13.1600178,0.372237306 C12.8927869,0.164992822 12.5682234,0.0604695171 12.1838264,0.0604695171 L8.83045324,0.0604695171 Z M1.37761496,0.0604695171 C0.997258175,0.0604695171 0.673271918,0.164992822 0.403924672,0.372237306 C0.134577427,0.580956257 -9.61954447e-05,0.831779424 -9.61954447e-05,1.12683659 L-9.61954447e-05,2.64668408 C-9.61954447e-05,2.94206891 0.133807864,3.19387505 0.400461636,3.40128337 C0.670001272,3.61000232 0.994564703,3.71387031 1.37761496,3.71387031 L4.63806337,3.71387031 C5.02130602,3.71387031 5.34663901,3.61000232 5.61463952,3.40128337 C5.88398677,3.19387505 6.01789083,2.94206891 6.01558214,2.64668408 L6.01558214,2.4173226 L4.84353684,2.4173226 L4.84353684,2.47400765 C4.84353684,2.58934371 4.79062934,2.69009894 4.68462196,2.77529035 C4.57976893,2.85343708 4.44894312,2.89521364 4.29272172,2.89980087 L1.72218705,2.89980087 C1.57096781,2.89783491 1.44187352,2.85802431 1.33394223,2.77791162 C1.22504899,2.69255638 1.17002519,2.59130967 1.17002519,2.47400765 L1.17002519,1.30082366 C1.17002519,1.17762378 1.22350986,1.07686855 1.3304792,0.999704796 C1.44110396,0.914185728 1.57096781,0.872409172 1.72218705,0.873719809 L4.29272172,0.873719809 C4.44894312,0.868313431 4.57976893,0.909598499 4.68462196,0.996919692 C4.79062934,1.07555792 4.84353684,1.17762378 4.84353684,1.30082366 L4.84353684,1.36144062 L6.01558214,1.36144062 L6.01558214,1.12683659 C6.01789083,0.831779424 5.88398677,0.580956257 5.61463952,0.372237306 C5.34663901,0.164992822 5.02130602,0.0604695171 4.63806337,0.0604695171 L1.37761496,0.0604695171 Z" mask="url(#fiktives_firmenlogo-b)"/>
    </g>
    <g transform="translate(8.833 .075)">
      <mask id="fiktives_firmenlogo-d" fill="#fff">
        <use xlink:href="#fiktives_firmenlogo-c"/>
      </mask>
      <path fill="#4894E5" d="M19.8371669,0.0557020748 L19.8371669,4.13872969 L19.8371669,11.3343892 L18.8638065,11.3343892 L18.8638065,3.52024006 L13.4153995,0.0557020748 L13.4153995,11.3343892 L12.4421937,11.3343892 L12.4421937,3.52024006 L6.99347754,0.0557020748 L6.99347754,8.11861017 C2.61938478,10.0937402 -0.137903041,12.304916 0.0386499555,14.0419033 C0.0630767273,14.288303 0.146251431,14.516485 0.283226874,14.7271043 C0.815050261,13.1534224 3.31817598,11.3117152 6.99347754,9.63396873 L6.99347754,15.5718099 C10.1462317,15.506147 13.9677847,15.01243 18.0543218,14.066019 C23.2726842,12.8569563 27.931859,11.1398907 31.2402952,9.34326943 L31.2402952,7.30627732 L27.3378865,4.82524138 C31.418858,4.70230362 34.3635208,5.32472516 35.216448,6.63549328 C35.3051883,6.37257949 35.3384273,6.11713632 35.3136913,5.87139188 C35.1086919,3.86048144 31.0254015,3.02167373 25.2320823,3.4861635 L19.8371669,0.0557020748 Z" mask="url(#fiktives_firmenlogo-d)"/>
      <mask id="fiktives_firmenlogo-f" fill="#fff">
        <use xlink:href="#fiktives_firmenlogo-e"/>
      </mask>
      <path fill="#4894E5" d="M20.1242588,9.48403185 C23.9651368,9.01692081 27.4046736,8.06094214 30.0044242,6.82527352 L27.6866637,5.35185535 L25.1025277,3.70844755 L20.1242588,0.543521186 L20.1242588,9.48403185 Z M13.7028006,9.77591072 C15.0526117,9.82060345 16.4673546,9.79609454 17.9247671,9.69491335 C18.1430621,9.67918571 18.3593472,9.66162317 18.575787,9.64353638 L18.575787,3.64173612 L13.7028006,0.543521186 L13.7028006,9.77591072 Z M7.28103321,4.36494565 L7.28103321,8.18623904 L7.28103321,8.92950132 C8.73102494,9.29700395 10.3742664,9.5571654 12.1540196,9.69216102 L12.1540196,3.64173612 L7.28103321,0.543521186 L7.28103321,4.36494565 Z" mask="url(#fiktives_firmenlogo-f)"/>
      <path fill="#1A475C" d="M35.216448,6.63548017 C34.3633662,5.32471205 31.418858,4.70229052 27.3378865,4.82509721 L25.2320823,3.48615039 C31.0254015,3.02166062 35.1086919,3.86046834 35.3136913,5.87137877 C35.3384273,6.11712322 35.3051883,6.37256638 35.216448,6.63548017" mask="url(#fiktives_firmenlogo-f)"/>
      <path fill="#4894E5" d="M6.99352392,9.63394252 C3.31822236,11.311689 0.814942041,13.1535273 0.283273254,14.7270781 C0.146143212,14.5164587 0.0631231073,14.2882768 0.0386963354,14.0418771 C-0.138011261,12.3050208 2.61881276,10.0931897 6.99352392,8.11858396 L6.99352392,9.63394252 Z" mask="url(#fiktives_firmenlogo-f)"/>
      <mask id="fiktives_firmenlogo-h" fill="#fff">
        <use xlink:href="#fiktives_firmenlogo-g"/>
      </mask>
      <path fill="#4894E5" d="M18.0543218,14.9575143 C8.54674195,17.1597778 0.473693854,16.9129848 -1.08096195,14.5217275 C-1.17604084,14.8023349 -1.2115988,15.0753406 -1.18516223,15.3377301 C-0.998869449,17.1719667 2.20876765,18.0925582 6.99347754,18.0136578 L6.99347754,18.9611173 L13.4153995,18.9611173 L19.8371669,18.9611173 L24.8189916,17.4360601 L31.2402952,15.4703666 L31.2402952,11.86677 C34.6212387,10.0567802 36.6410854,8.15832247 36.4837028,6.61255713 C36.4568024,6.35003653 36.3685259,6.10652016 36.2222745,5.88148378 C35.2139744,8.86619755 27.5619016,12.755513 18.0543218,14.9575143" mask="url(#fiktives_firmenlogo-h)"/>
      <path fill="#1A475C" d="M6.99352392,18.0135792 L6.99352392,18.9610387 L7.79821599,18.9610387 C9.50855382,18.901929 11.401474,18.721061 13.4154459,18.4162069 C14.9925187,18.1772777 16.643954,17.863118 18.3423876,17.4697959 C18.8454555,17.352887 19.3443491,17.2312599 19.8370587,17.1054387 C24.3011286,15.9658398 28.2791366,14.4689613 31.2403416,12.9011772 L31.2403416,11.8668224 C27.9427274,13.6329059 23.3481753,15.3153707 18.2117508,16.5045117 C14.0568806,17.4669124 10.1764251,17.9614158 6.99352392,18.0135792" mask="url(#fiktives_firmenlogo-h)"/>
    </g>
  </g>
</svg>
