<?xml version="1.0" encoding="UTF-8"?>
<svg width="1152" height="1152" version="1.1" viewBox="0 0 1152 1152" xmlns="http://www.w3.org/2000/svg" xmlns:xlink="http://www.w3.org/1999/xlink">
    <!--Generated by IJSVG (https://github.com/curthard89/IJSVG)-->
    <g transform="scale(24)">
        <path fill="none" d="M0,0h48v48h-48Z"></path>
        <path fill="#E98E28" d="M22,34h4v-12h-4v12Zm2,-30c-11.05,0 -20,8.95 -20,20c0,11.05 8.95,20 20,20c11.05,0 20,-8.95 20,-20c0,-11.05 -8.95,-20 -20,-20Zm0,36c-8.82,0 -16,-7.18 -16,-16c0,-8.82 7.18,-16 16,-16c8.82,0 16,7.18 16,16c0,8.82 -7.18,16 -16,16Zm-2,-22h4v-4h-4v4Z"></path>
    </g>
</svg>