<svg xmlns="http://www.w3.org/2000/svg" width="24" height="24" viewBox="0 0 24 24">
  <g fill="none" fill-rule="evenodd" transform="translate(0 .5)">
    <path fill="#FFF" d="M2.70000005,20.2999992 L21.6499996,20.2999992 C21.8432995,20.2999992 22,20.4566997 22,20.6499996 L22,20.6499996 C22,20.8432995 21.8432995,21 21.6499996,21 L2.54545455,21 C2.24420832,21 2,20.7557917 2,20.4545455 L2,2.35000002 C2,2.15670035 2.15670035,2 2.35000002,2 L2.35000002,2 C2.5432997,2 2.70000005,2.15670035 2.70000005,2.35000002 L2.70000005,20.2999992 Z"/>
    <polyline stroke="#FFF" stroke-linecap="round" stroke-linejoin="round" stroke-width=".764" points="4.053 19.122 7.915 13.39 11.065 17 14.44 9.019 17.195 13.39 19.854 6.082"/>
    <circle cx="19.9" cy="5.9" r="1" fill="#FFF"/>
  </g>
</svg>
